# This file uses centimeters as units for non-parametric coordinates.

g default
v -0.500000 -0.137844 0.500000
v 0.500000 -0.137844 0.500000
v -0.500000 0.071616 0.500000
v 0.500000 0.071616 0.500000
v -0.500000 0.071616 -0.500000
v 0.500000 0.071616 -0.500000
v -0.500000 -0.137844 -0.500000
v 0.500000 -0.137844 -0.500000
v 0.752528 -0.188100 0.715108
v -0.754985 -0.188100 0.715108
v -0.754985 -0.188100 -0.742007
v 0.752528 -0.188100 -0.742007
v 0.752528 0.166859 0.715108
v -0.754985 0.166859 0.715108
v -0.754985 0.166859 -0.742007
v 0.752528 0.166859 -0.742007
vt 0.375000 0.000000
vt 0.625000 0.000000
vt 0.375000 0.250000
vt 0.625000 0.250000
vt 0.375000 0.500000
vt 0.625000 0.500000
vt 0.375000 0.750000
vt 0.625000 0.750000
vt 0.375000 1.000000
vt 0.625000 1.000000
vt 0.875000 0.000000
vt 0.875000 0.250000
vt 0.125000 0.000000
vt 0.125000 0.250000
vt 0.625000 0.077975
vt 0.375000 0.077975
vt 0.125000 0.077975
vt 0.375000 0.672025
vt 0.625000 0.672025
vt 0.875000 0.077975
vt 0.625000 0.166715
vt 0.375000 0.166715
vt 0.125000 0.166715
vt 0.375000 0.583285
vt 0.625000 0.583285
vt 0.875000 0.166715
vn 0.000000 -0.973777 -0.227503
vn 0.000000 -0.236796 0.971559
vn 0.000000 -0.973777 -0.227503
vn 0.000000 -0.235220 0.971942
vn 0.000000 1.000000 0.000000
vn 0.000000 1.000000 0.000000
vn 0.000000 1.000000 0.000000
vn 0.000000 1.000000 0.000000
vn 0.000000 -0.282869 -0.959159
vn 0.000000 -0.284604 -0.958645
vn 0.000000 -0.979111 0.203324
vn 0.000000 -0.979112 0.203324
vn 0.000000 -1.000000 0.000000
vn 0.000000 -1.000000 0.000000
vn 0.000000 -1.000000 0.000000
vn 0.000000 -1.000000 0.000000
vn -0.195182 -0.980767 0.000000
vn -0.195182 -0.980767 0.000000
vn 0.941529 -0.336932 0.000000
vn 0.948959 -0.315400 0.000000
vn 0.193373 -0.981125 0.000000
vn -0.939875 -0.341518 0.000000
vn 0.193373 -0.981125 0.000000
vn -0.947453 -0.319894 0.000000
vn 0.000000 -0.235220 0.971942
vn 0.000000 -0.236796 0.971559
vn 0.000000 0.258322 0.966059
vn 0.000000 0.260069 0.965590
vn -0.947453 -0.319894 0.000000
vn -0.939875 -0.341518 0.000000
vn -0.937715 0.347406 0.000000
vn -0.928564 0.371173 0.000000
vn 0.000000 0.307919 -0.951412
vn 0.000000 0.309831 -0.950792
vn 0.000000 -0.282869 -0.959159
vn 0.000000 -0.284604 -0.958645
vn 0.941529 -0.336932 0.000000
vn 0.948959 -0.315400 0.000000
vn 0.930454 0.366408 0.000000
vn 0.939434 0.342731 0.000000
vn 0.000000 0.258322 0.966059
vn 0.000000 0.260069 0.965590
vn 0.000000 0.914381 -0.404856
vn 0.000000 0.914381 -0.404856
vn -0.937715 0.347406 0.000000
vn -0.928564 0.371173 0.000000
vn 0.349909 0.936784 0.000000
vn 0.349909 0.936784 0.000000
vn 0.000000 0.930531 0.366213
vn 0.000000 0.309831 -0.950792
vn 0.000000 0.930531 0.366213
vn 0.000000 0.307919 -0.951412
vn 0.939434 0.342731 0.000000
vn -0.352891 0.935664 0.000000
vn 0.930454 0.366408 0.000000
vn -0.352891 0.935665 0.000000
s 1
g pCube1
f 2/2/1 9/15/2 1/1/3
f 1/1/3 9/15/2 10/16/4
s 2
f 3/3/5 4/4/6 5/5/7
f 5/5/7 4/4/6 6/6/8
s 3
f 11/18/9 12/19/10 7/7/11
f 7/7/11 12/19/10 8/8/12
s 4
f 7/7/13 8/8/14 1/9/15
f 1/9/15 8/8/14 2/10/16
s 5
f 2/2/17 8/11/18 9/15/19
f 9/15/19 8/11/18 12/20/20
s 6
f 1/1/21 10/16/22 7/13/23
f 7/13/23 10/16/22 11/17/24
s 7
f 10/16/25 9/15/26 14/22/27
f 14/22/27 9/15/26 13/21/28
s 8
f 11/17/29 10/16/30 15/23/31
f 15/23/31 10/16/30 14/22/32
s 9
f 15/24/33 16/25/34 11/18/35
f 11/18/35 16/25/34 12/19/36
s 10
f 9/15/37 12/20/38 13/21/39
f 13/21/39 12/20/38 16/26/40
s 11
f 14/22/41 13/21/42 3/3/43
f 3/3/43 13/21/42 4/4/44
s 12
f 15/23/45 14/22/46 5/14/47
f 5/14/47 14/22/46 3/3/48
s 13
f 6/6/49 16/25/50 5/5/51
f 5/5/51 16/25/50 15/24/52
s 14
f 16/26/53 6/12/54 13/21/55
f 13/21/55 6/12/54 4/4/56
